<svg xmlns="http://www.w3.org/2000/svg" width="1080" height="1920" viewBox="0 0 1080 1920">
  <defs>
    <linearGradient id="bg" x1="0" y1="0" x2="0" y2="1">
      <stop offset="0%" stop-color="#0A0E1A"/>
      <stop offset="100%" stop-color="#101A38"/>
    </linearGradient>
    <linearGradient id="brand" x1="0" y1="0" x2="1" y2="1">
      <stop offset="0%" stop-color="#C464FF"/>
      <stop offset="100%" stop-color="#5B9DFF"/>
    </linearGradient>
    <linearGradient id="cta" x1="0" y1="0" x2="1" y2="0">
      <stop offset="0%" stop-color="#39FF14"/>
      <stop offset="100%" stop-color="#14D6A0"/>
    </linearGradient>
    <filter id="glow" x="-50%" y="-50%" width="200%" height="200%">
      <feGaussianBlur stdDeviation="18"/>
    </filter>
    <symbol id="bolt" viewBox="0 0 24 24"><path d="M13 2 L3 14 h7 l-1 8 11-13 h-7 z"/></symbol>
  </defs>

  <rect width="1080" height="1920" fill="url(#bg)"/>
  <use href="#bolt" x="320" y="560" width="440" height="440" fill="#00EEFC" opacity="0.06"/>

  <use href="#bolt" x="348" y="150" width="64" height="64" fill="#7AA8FF" opacity="0.55" filter="url(#glow)"/>
  <use href="#bolt" x="348" y="150" width="64" height="64" fill="url(#brand)"/>
  <text x="426" y="200" font-family="Arial, Helvetica, sans-serif" font-size="50" font-weight="700" fill="url(#brand)">IdiomaConnect</text>
  <rect x="470" y="238" width="140" height="5" rx="2" fill="#00EEFC"/>

  <text x="540" y="822" text-anchor="middle" font-family="Arial, Helvetica, sans-serif" font-size="76" font-weight="800" fill="#F2F5FF">Inglés que tus</text>
  <text x="540" y="914" text-anchor="middle" font-family="Arial, Helvetica, sans-serif" font-size="76" font-weight="800" fill="#F2F5FF">hijos SÍ quieren</text>
  <text x="540" y="1006" text-anchor="middle" font-family="Arial, Helvetica, sans-serif" font-size="76" font-weight="800" fill="#00EEFC">practicar</text>

  <text x="540" y="1140" text-anchor="middle" font-family="Arial, Helvetica, sans-serif" font-size="37" fill="#AEB8C9">Tutor con IA · juegos y retos · 8 a 18 años</text>

  <rect x="240" y="1466" width="600" height="112" rx="56" fill="#39FF14" opacity="0.4" filter="url(#glow)"/>
  <rect x="240" y="1466" width="600" height="112" rx="56" fill="url(#cta)"/>
  <text x="540" y="1538" text-anchor="middle" font-family="Arial, Helvetica, sans-serif" font-size="46" font-weight="700" fill="#06270C">Prueba gratis · 7 días</text>

  <text x="540" y="1702" text-anchor="middle" font-family="Arial, Helvetica, sans-serif" font-size="34" fill="#6E7891">idiomaconnect.com</text>
</svg>
