<svg xmlns="http://www.w3.org/2000/svg" width="1080" height="1080" viewBox="0 0 1080 1080">
  <defs>
    <linearGradient id="brand" x1="0" y1="0" x2="1" y2="1">
      <stop offset="0%" stop-color="#C464FF"/>
      <stop offset="100%" stop-color="#5B9DFF"/>
    </linearGradient>
    <linearGradient id="cta" x1="0" y1="0" x2="1" y2="0">
      <stop offset="0%" stop-color="#39FF14"/>
      <stop offset="100%" stop-color="#14D6A0"/>
    </linearGradient>
    <linearGradient id="scrimTop" x1="0" y1="0" x2="0" y2="1">
      <stop offset="0%" stop-color="#0A0E1A" stop-opacity="0.85"/>
      <stop offset="100%" stop-color="#0A0E1A" stop-opacity="0"/>
    </linearGradient>
    <linearGradient id="scrimBottom" x1="0" y1="0" x2="0" y2="1">
      <stop offset="0%" stop-color="#0A0E1A" stop-opacity="0"/>
      <stop offset="45%" stop-color="#0A0E1A" stop-opacity="0.72"/>
      <stop offset="100%" stop-color="#0A0E1A" stop-opacity="0.94"/>
    </linearGradient>
    <filter id="glow" x="-50%" y="-50%" width="200%" height="200%">
      <feGaussianBlur stdDeviation="14"/>
    </filter>
    <symbol id="bolt" viewBox="0 0 24 24"><path d="M13 2 L3 14 h7 l-1 8 11-13 h-7 z"/></symbol>
  </defs>

  <rect x="0" y="0" width="1080" height="240" fill="url(#scrimTop)"/>
  <rect x="0" y="600" width="1080" height="480" fill="url(#scrimBottom)"/>

  <use href="#bolt" x="70" y="84" width="50" height="50" fill="url(#brand)"/>
  <text x="132" y="125" font-family="Arial, Helvetica, sans-serif" font-size="38" font-weight="700" fill="url(#brand)">IdiomaConnect</text>

  <text x="540" y="724" text-anchor="middle" font-family="Arial, Helvetica, sans-serif" font-size="34" font-weight="700" fill="#00EEFC">★★★★★  4,8 de valoración</text>

  <text x="540" y="804" text-anchor="middle" font-family="Arial, Helvetica, sans-serif" font-size="58" font-weight="800" fill="#F2F5FF">Únete a +1.000 niños</text>
  <text x="540" y="872" text-anchor="middle" font-family="Arial, Helvetica, sans-serif" font-size="58" font-weight="800" fill="#F2F5FF">que aprenden inglés</text>

  <rect x="270" y="930" width="540" height="92" rx="46" fill="#39FF14" opacity="0.4" filter="url(#glow)"/>
  <rect x="270" y="930" width="540" height="92" rx="46" fill="url(#cta)"/>
  <text x="540" y="988" text-anchor="middle" font-family="Arial, Helvetica, sans-serif" font-size="38" font-weight="700" fill="#06270C">Prueba gratis · 7 días</text>

  <text x="540" y="1058" text-anchor="middle" font-family="Arial, Helvetica, sans-serif" font-size="26" fill="#8893AA">idiomaconnect.com</text>
</svg>
